<svg width="138" height="80" viewBox="0 0 138 80" fill="none" xmlns="http://www.w3.org/2000/svg">
<mask id="path-1-inside-1_31_76" fill="white">
<path d="M133 1.17072H127.719C119.605 2.16943 105 8.36138 105 40C105 71.6386 119.605 77.8305 127.719 78.8292H133C133 78.8292 130.839 79.2134 127.719 78.8292H8.28122C5.1605 79.2134 3 78.8292 3 78.8292H8.28122C16.3951 77.8306 31 71.6386 31 40C31 8.36135 16.3951 2.16942 8.28124 1.17072H3C3 1.17072 5.16051 0.786604 8.28124 1.17072H127.719C130.839 0.786598 133 1.17072 133 1.17072Z"/>
</mask>
<path d="M133 1.17072H127.719C119.605 2.16943 105 8.36138 105 40C105 71.6386 119.605 77.8305 127.719 78.8292H133C133 78.8292 130.839 79.2134 127.719 78.8292H8.28122C5.1605 79.2134 3 78.8292 3 78.8292H8.28122C16.3951 77.8306 31 71.6386 31 40C31 8.36135 16.3951 2.16942 8.28124 1.17072H3C3 1.17072 5.16051 0.786604 8.28124 1.17072H127.719C130.839 0.786598 133 1.17072 133 1.17072Z" fill="#323270"/>
<path d="M3 -0.329278C3 0.670722 3 1.67072 3 2.67072C10.9841 2.67072 18.9682 2.67072 26.9523 2.67072C62.3015 2.67072 97.6508 2.67072 133 2.67072L133.263 -0.306119C123.343 -1.68092 113.441 4.10312 109.076 12.7111C104.532 21.1937 103.552 30.7439 103.5 40C103.552 49.2561 104.532 58.8063 109.076 67.2889C113.441 75.8968 123.343 81.6809 133.263 80.3061L133 77.3292C89.6667 77.3292 46.3333 77.3292 3 77.3292L2.73743 80.3061C12.6567 81.6809 22.5587 75.8968 26.9242 67.2889C31.4682 58.8063 32.4478 49.2561 32.5 40C32.4967 36.5787 32.3454 33.3636 31.9515 29.9657C31.1059 22.9295 29.3042 15.708 24.9993 9.6441C20.2009 2.65195 11.3744 -1.45298 2.73743 -0.306119C2.91248 0.678441 3.08752 1.663 3.26257 2.64756C10.4823 1.71499 18.3384 5.17949 22.5615 11.3925C26.414 16.798 28.1707 23.5696 28.9718 30.3146C29.3494 33.5704 29.4969 36.6775 29.5 40C30.3434 57.0557 22.2741 79.8665 3.26257 77.3524L3 80.3292C46.3333 80.3292 89.6667 80.3292 133 80.3292L132.737 77.3524C113.726 79.8665 105.657 57.0557 106.5 40C105.657 22.9442 113.726 0.133479 132.737 2.64756L133 -0.329278C97.6508 -0.329278 62.3015 -0.329278 26.9523 -0.329278C18.9682 -0.329278 10.9841 -0.329278 3 -0.329278ZM3 2.67072V-0.329278L3.26257 2.64756L2.73743 -0.306119L3 2.67072Z" fill="black" mask="url(#path-1-inside-1_31_76)"/>
<rect y="77" width="138" height="3" fill="#323270"/>
<rect width="138" height="3" fill="#323270"/>
</svg>
