<svg width="85" height="52" viewBox="0 0 85 52" fill="none" xmlns="http://www.w3.org/2000/svg">
<path d="M2.77527 2.7984H77.3371C77.3371 2.7984 69 7.66662 69 27.25C69 46.8333 77.3371 49.2015 77.3371 49.2015H2.77527C2.77527 49.2015 14.5 45.5833 14.5 27.25C14.5 8.91663 2.77527 2.7984 2.77527 2.7984Z" fill="#CFA96B" stroke="black" stroke-width="3"/>
<path d="M2.5 48.5L8.5 47.6666H20.75H40.5H60.5H72L79 49L80 51.1666H1L2.5 48.5Z" fill="#CFA96B"/>
<path d="M0 0H85L82.5 2.5L80 3L76 3.5L73.5 4.5H63L42.5 8L20 4.5H8L5 3.5L2 3L0 0Z" fill="#CFA96B"/>
</svg>
